<svg xmlns="http://www.w3.org/2000/svg" viewBox="0 0 360 230" enable-background="new 0 0 360 230"><style type="text/css">.st0{fill:#243746;} .st1{fill:#FF4438;}</style><path class="st0" d="M1.8 98.5l8.3-2.4.1 30.6 15.2-4.3v7.6l-23.5 6.7-.1-38.2z"/><path class="st0" d="M39.6 125.8l-8.3 2.4-.1-38.2 8.3-2.4.1 38.2z"/><path class="st0" d="M45.3 86l28-8v7.6l-9.8 2.8.1 30.6-8.3 2.4-.1-30.6-9.8 2.8-.1-7.6z"/><path class="st0" d="M76.2 77.2l28-8v7.6l-9.8 2.8.1 30.6-8.3 2.4-.2-30.7-9.8 2.8v-7.5z"/><path class="st0" d="M109.6 67.6l8.3-2.4.1 30.6 15.2-4.3v7.6l-23.5 6.7-.1-38.2z"/><path class="st0" d="M138.8 59.2l23.7-6.8v7.6l-15.4 4.4v7.3l14.2-4.1v7.6l-14.2 4.1v8.2l15.5-4.4v7.6l-23.8 6.8v-38.3z"/><path class="st0" d="M176.6 48.4l28-8v7.6l-9.8 2.8.1 30.6-8.3 2.4-.1-30.6-9.8 2.8-.1-7.6z"/><path class="st0" d="M247.4 60c0 3.5-2.8 7.1-6.3 8.1l-12.9 3.7c-3.5 1-6.3-1-6.3-4.5v-5.1l8.1-2.3v3.3c0 .3.2.5.6.4l8-2.3c.3-.1.6-.4.6-.7v-5.3c0-.4-.3-.5-.7-.5h-11.1c-3.4 0-5.3-.9-5.3-4.4v-8.5c0-3.5 2.8-7.1 6.3-8.1l12.6-3.6c3.5-1 6.3 1 6.3 4.5v5l-8.1 2.3v-3.2c0-.3-.2-.5-.6-.4l-7.7 2.2c-.3.1-.6.4-.6.7v4.9c0 .5.3.5.6.6.6 0 3.8 0 11.4-.1 3.3 0 5.2 1 5.2 4.5l-.1 8.8z"/><path class="st0" d="M284.7 55.6l-8.5 2.4-2.4-6.9-11.7 3.4-2.3 8.2-8.5 2.4 12.4-41.8 8.4-2.4 12.6 34.7zm-20.2-9.1l6.9-2-3.5-11.7-3.4 13.7z"/><path class="st0" d="M297.2 29.9l6.4-17.8 8.8-2.5-11 28.4v12.8l-8.4 2.4v-12.8l-11-22.2 8.8-2.5 6.4 14.2z"/><path class="st0" d="M340.6 33.3c0 3.5-2.8 7.1-6.3 8.1l-12.9 3.7c-3.5 1-6.3-1-6.3-4.5v-5.1l8.1-2.3v3.3c0 .3.2.5.6.4l8-2.3c.3-.1.6-.4.6-.7v-5.3c0-.4-.3-.5-.8-.5h-11.1c-3.4 0-5.3-.9-5.3-4.4v-8.5c0-3.5 2.8-7.1 6.3-8.1l12.5-3.8c3.5-1 6.3 1 6.3 4.5v5l-8.1 2.3v-3.2c0-.3-.2-.5-.6-.4l-7.7 2.2c-.3.1-.6.4-.6.7v4.9c0 .5.3.5.6.6.6 0 3.8 0 11.4-.1 3.3 0 5.2 1 5.2 4.5l.1 9z"/><path class="st1" d="M5.4 174.9l2.3-.7v6.4l-5.7 1.7v-6.4l2.7-5.9 2.6.8-1.9 4.1zm8-2.2l2.3-.7v6.4l-5.7 1.6v-6.4l2.7-5.9 2.6.8-1.9 4.2z"/><path class="st1" d="M19.5 166.2l18.2-5.1v4.9l-6.4 1.8v19.9l-5.4 1.5v-19.9l-6.4 1.8v-4.9z"/><path class="st1" d="M41.9 159.9l15.4-4.3v4.9l-10 2.8v4.7l9.2-2.6v4.9l-9.2 2.6v5.3l10.1-2.8v4.9l-15.4 4.5-.1-24.9z"/><path class="st1" d="M62 154.3l5.4-1.5v19.9l9.9-2.8v4.9l-15.3 4.4v-24.9z"/><path class="st1" d="M81.5 148.9l5.4-1.5v19.9l9.9-2.8v4.9l-15.3 4.3v-24.8z"/><path class="st1" d="M115.7 149.7l4.1-11.6 5.7-1.6-7.1 18.5v8.3l-5.4 1.5v-8.3l-7.2-14.5 5.7-1.6 4.2 9.3z"/><path class="st1" d="M142 156.9l-9.2 2.6c-2.3.6-4.1-.7-4.1-3v-16.6c0-2.3 1.8-4.6 4.1-5.2l9.2-2.6c2.3-.6 4.1.7 4.1 3v16.6c0 2.2-1.9 4.5-4.1 5.2zm-1.8-19.5l-5.8 1.6c-.2.1-.4.3-.4.5v14.2c0 .2.2.3.4.3l5.8-1.6c.2-.1.4-.3.4-.5v-14.2c0-.2-.1-.3-.4-.3z"/><path class="st1" d="M167.9 124.8l.1 20.7c0 2.3-1.8 4.6-4.1 5.2l-8.8 2.5c-2.3.6-4.1-.7-4.1-3l-.1-20.7 5.4-1.5v19.5c0 .2.2.3.4.3l5.5-1.5c.2-.1.4-.3.4-.5v-19.5l5.3-1.5z"/><path class="st1" d="M181.9 136.6l-3.7 1v9.1l-5.4 1.5-.1-24.8 13.8-3.8c2.3-.6 4.1.7 4.1 3v7.5c0 1.9-1.2 3.8-2.9 4.8l4.4 8.1-5.9 1.7-4.3-8.1zm-3.7-9.8v5.8l6.7-1.9c.2-.1.4-.3.4-.5v-5.1c0-.2-.1-.3-.4-.3l-6.7 2z"/><path class="st1" d="M203.9 139.6l-.1-24.8 15.6-4.4v4.9l-10.2 2.9v4.7l9.4-2.6v4.9l-9.4 2.6v10.2l-5.3 1.6z"/><path class="st1" d="M232.7 122.4l-3.7 1v9.1l-5.4 1.5-.1-24.8 13.8-3.8c2.3-.6 4.1.7 4.1 3v7.5c0 1.9-1.2 3.8-2.9 4.8l4.4 8-5.9 1.7-4.3-8zm-3.7-9.8v5.8l6.7-1.9c.2-.1.4-.3.4-.5v-5.1c0-.2-.1-.3-.4-.3l-6.7 2z"/><path class="st1" d="M252.8 125.9l-5.4 1.5-.1-24.8 5.4-1.5.1 24.8z"/><path class="st1" d="M257.8 99.7l15.4-4.3v4.9l-10 2.8v4.7l9.2-2.6v4.9l-9.2 2.6v5.3l10.1-2.8v4.9l-15.5 4.3v-24.7z"/><path class="st1" d="M296.7 113.7l-5.2 1.5-8.3-12.1v14.5l-5.2 1.5-.1-24.8 5.2-1.5 8.3 12.2v-14.5l5.2-1.5.1 24.7z"/><path class="st1" d="M314.5 83.9c2.3-.6 4.1.7 4.1 3v16.6c0 2.3-1.8 4.6-4.1 5.2l-12.8 3.6-.1-24.8 12.9-3.6zm-7.4 7v15l5.7-1.6c.2-.1.4-.3.4-.5v-14.2c0-.2-.2-.3-.4-.3l-5.7 1.6z"/><path class="st1" d="M340 97.5c0 2.3-1.8 4.6-4.1 5.2l-8.4 2.3c-2.3.6-4.1-.7-4.1-3v-3.3l5.3-1.5v2.1c0 .2.2.3.4.3l5.2-1.5c.2-.1.4-.3.4-.5v-3.5c0-.3-.2-.4-.5-.3h-7.2c-2.2 0-3.5-.6-3.5-2.9v-5.6c0-2.3 1.8-4.6 4.1-5.2l8.2-2.3c2.3-.6 4.1.7 4.1 3v3.3l-5.3 1.5v-2.1c0-.2-.1-.3-.4-.3l-5 1.4c-.2.1-.4.3-.4.5v3.2c0 .3.2.4.4.4h7.4c2.1 0 3.4.7 3.4 2.9v5.9z"/><path class="st1" d="M346.6 81.3l-2.3.7v-6.4l5.7-1.6v6.4l-2.7 5.9-2.6-.8 1.9-4.2zm8-2.2l-2.3.7v-6.4l5.8-1.6v6.4l-2.7 5.9-2.6-.8 1.8-4.2z"/><path class="st0" d="M117.4 210.8c-.4-.4-.1-.7 0-1.1.3-1.1 1-1.8 1.6-2.7.2-.3.5-.6.7-.8 1-.9 2-1.8 3-2.6l2.4-1.6c.5-.3.8-.8 1.3-1.2l2.5-2.3c1-.9 2-1.8 2.9-2.7.3-.3.3-.8.4-1.3.1-.6 0-1.4.3-1.9.2-.3.9-.6 1.4-.5.5 0 1 .4 1.4.7.3.2 1.1-.1 1.4-.5 1-1.1 2.2-2.1 3.6-2.7 1.1-.4 2.3-.8 3.5-1.2.8-.3 1.6-.9 2.4-1.3.8-.5 1.5-1.2 2.5-1.4.6-.1 1.5-.1 1.8.2.6.8.6 1.2-.1 2.1-.6.8-1.4 1.2-2.3 1.6l-1.8 1c-.8.3-1.6.4-2.4.6-1 .3-2 .6-2.9 1l-1 .8c-1 .7-2 1.4-2.9 2.1-.7.5-1.3 1-1.9 1.5-.6.5-.6 1.2-.5 1.9.3 2.5.6 5.1 1 7.6.2 1.2.6 2.4.9 3.6.1.3.1.6.1.9.2 1 .4 2.1.5 3.1 0 .2-.1.5-.1.8 0 .4.1.9.2 1.3s.2.9.2 1.3v.3l.7 3.2c.1.7.7.9 1.2 1.2.5.3.8.9.5 1.5-.1.2-.1.4-.1.6-.2.9-.8 1.5-1.4 2-.5.5-1.6-.1-1.9-1.2-.2-.7-.2-1.4-.3-2.1-.2-1.1-.6-2.2-.8-3.2l-.8-4.8c-.1-.7-.4-1.3-.5-1.9-.1-.3-.2-.6-.1-.9.2-1.2-.3-2.3-.5-3.4-.2-1.2-.3-2.4-.6-3.7-.2-1-.5-2-.8-3l-.1-.7c-.3-.8-.9-.9-1.5-.2-.8.8-1.6 1.6-2.4 2.3-.9.8-1.8 1.6-2.8 2.3-.3.3-.8.4-1.1.6l-2 1.9-1.9 1.4c-.4.3-.8.7-1.2 1.2-.3.3-.5.5-1 .4-.2-.3-.4-.2-.7-.1z"/><path class="st0" d="M207 185.8c.5-.7.9-1.5 1.4-2.1.5-.5 1-1 1.7-1.3.8-.3 1.7-.7 2.5-.2.6.4 1.3.8 1.8 1.3.7.7 1 1.7 1.3 2.6.3 1.2.7 2.4 1 3.7.4 1.7.7 3.4 1 5l.3 1.5c.1.6-.3 1.3-.8 1.5-.7.2-1.2.1-1.5-.7-.2-.4-.3-.8-.4-1.3-.2-.7-.3-1.4-.4-2.1-.1-.3-.1-.6 0-.9.2-1.5-.6-2.8-.9-4.2-.2-.9-.6-1.9-1-2.8-.6-1.4-1.8-1.5-2.8-.4-.8.9-1.3 2-1.6 3.2-.1.6-.5 1.2-.7 1.8-.3 1.3-.3 2.7-.1 4 .1 1.3.1 2.6.3 3.8.1.8.1 1.5-.6 2-.5.3-1 .3-1.5 0-.4-.3-.7-.6-.6-1.2 0-.6-.1-1.2-.1-1.7l-.1-2v-2.4c0-.6-.3-1.1-.4-1.6-.3-1.2-.5-2.3-.7-3.5-.1-.4 0-.9 0-1.4l-.1-1.5c0-.6 0-1.3.1-1.9.1-.6.6-.8 1.1-.8.6 0 1.1.3 1.3.9.1.3.1.7.1 1-.4.7-.3 1.3.4 1.7z"/><path class="st0" d="M164.1 200.5c1.2-.4 2.2-.9 2.8-1.9l.5-.5 1.3-1.5s0-.1.1-.2c1.2-.6 1.4-1.9 2-3 .6-1 .8-2.1 1.2-3.1.2-.5 1.2-1.2 1.7-1 .4.2.8.5 1.1.9.2.2.1.7 0 1l-1.1 3.6c-.1.5-.1 1.1 0 1.6.3 1.2.6 2.4.4 3.7-.1.8.1 1.7.2 2.6.1.7-.7 1.6-1.5 1.6-.6 0-1.3-.5-1.4-1.3-.1-.6 0-1.2 0-1.7 0-.6 0-1.3-.2-1.9-.2-.6-.7-.7-1.1-.3-.5.5-1 1.1-1.5 1.5-.5.4-1 .9-1.6 1.2-1 .4-2 .8-3.1 1-1.8.3-3.4-.4-4.8-1.5-1-.8-2.1-1.6-2.6-2.8l-1.1-3.3-.1-.4c-.2-.8.1-1.6.7-1.8.8-.3 1.6.2 1.9 1.1.2.8.4 1.7.7 2.5.3 1.1 1.1 1.8 1.9 2.5.8.8 1.7 1.1 2.8 1.2.4.2.7.2.8.2z"/><path class="st0" d="M237.3 185.3c-1.6.5-3.1 0-4.4-.7-1.5-.8-2.2-2.3-2.5-3.9l-.4-1.6c0-.6.1-1.2.2-1.8.2-1.9.6-3.8 1.8-5.3.8-.9 1.8-1.7 2.7-2.4.5-.4 1.1-.8 1.6-1.1.8-.4 1.6-.8 2.6-.8 2.1 0 3.3 1.8 2.4 3.7-.5 1.2-1.4 2-2.3 2.8-.8.7-1.7 1.5-2.6 2-.9.5-1.6 1.3-2.8 1.5-.7.1-1.2 1.3-1.1 2.1.2 1.2 1 2.1 1.9 2.8 1.1.9 2.7.8 3.9-.1.6-.4 1-.9 1.6-1.4l.1-.1c.5-.4 1.3-.6 1.7-.3.4.3.3 1.2 0 1.7-.9 1.8-2.6 2.5-4.4 2.9zm-3.3-10.5c.5-.3 1.1-.6 1.5-1 .7-.8 1.6-1.2 2.4-1.9.3-.3.6-.7.8-1 .2-.5-.2-.9-.7-.8-.5.1-1 .3-1.4.6-1.1.7-1.9 1.6-2.6 2.6-.3.5-.7.9 0 1.5z"/><path class="st0" d="M184.4 186.4c.7-.5 1.3-1 1.9-1.5l2.4-1.7c1-.8 2.1-1.1 3.3-1.5.7-.2 1.4-.5 2-.7 1.6-.7 3.3-1.1 5.1-.7.6.1 1.1.5 1.6.8.5.3.5 1.3.1 1.7-.1.1-.2.3-.2.4-.4.5-1 .6-1.5.3-.2-.1-.4-.2-.5-.3-.8-.7-1.7-.7-2.7-.4-.9.3-1.7.6-2.5 1-.8.3-1.7.5-2.4.9-1.2.6-2.3 1.3-3.2 2.4-.2.2-.6.3-.8.6-.6.5-1.2 1-1.8 1.6-.3.3-.4.7-.6 1.1-.4.7-.9 1.3-1.2 2-.4.9-.5 1.9-.8 2.9l-.2 1.3c-.1 1.1-.2 2.2-.4 3.3-.1.6-.6 1.1-1.2 1.2-.5 0-1.1.1-1.5-.5-.4-.7-.3-1.2-.2-1.9 0-1.3.6-2.5.9-3.7.1-.6.1-1.1.1-1.7l.4-1.9.3-2.2.3-2.3.1-1.7c.1-.7 1-1.3 1.7-1.1.2.1.5.3.6.5.2.3.3.7.3 1.1 0 .3.3.6.6.7z"/><path class="st0" d="M254 170.8c.6-.3 1 .1 1.2.5.3.5.6.3.8 0 .4-.6.8-1.1 1.1-1.8.6-1.3 1.3-2.4 2.2-3.4 1-1.1 2.2-1.8 3.6-2.2 1.1-.3 2.2-.1 3.2.4.2.1.3.2.5.2.7.1 1 .5 1 1.2 0 .6-.4 1-.9 1-.6.1-1.2.1-1.7-.1-2.1-.6-3.5-.1-4.6 1.9l-1.1 2.2c-.7 1.4-1.4 2.8-2.4 4-.5.5-.8 1.2-.8 2.1 0 1.6-.1 3.3-.3 4.9 0 .6-.5.9-1.1 1-.8.1-1.3-.2-1.5-.9-.2-.7-.3-1.5-.2-2.2.2-1.6.4-3.1.1-4.6-.1-.8-.2-1.6-.4-2.3-.1-.9.3-1.7 1.3-1.9z"/></svg>