<svg xmlns="http://www.w3.org/2000/svg" viewBox="0 0 420 195" enable-background="new 0 0 420 195"><style type="text/css">.st0{fill:#FF4438;} .st1{fill:#243746;} .st2{fill-rule:evenodd;clip-rule:evenodd;fill:#243746;}</style><path class="st0" d="M40.2 76.7h13.2v14.1c0 3.4-2.7 6.1-6.1 6.1h-13.2c-3.4 0-6.1-2.7-6.1-6.1v-24.9c0-3.4 2.7-6.1 6.1-6.1h13.1c3.4 0 6.1 2.7 6.1 6.1v5.6h-7.9v-3.8c0-.3-.2-.6-.6-.6h-8.2c-.3 0-.6.2-.6.6v21.3c0 .3.2.6.6.6h8.3c.3 0 .6-.2.6-.6v-5.3h-5.2v-7z"/><path class="st0" d="M79.8 96.9h-13.7c-3.4 0-6.1-2.7-6.1-6.1v-24.9c0-3.4 2.7-6.1 6.1-6.1h13.7c3.4 0 6.1 2.7 6.1 6.1v24.9c.1 3.4-2.7 6.1-6.1 6.1zm-2.5-29.8h-8.7c-.3 0-.6.2-.6.6v21.3c0 .3.2.6.6.6h8.7c.3 0 .6-.2.6-.6v-21.3c0-.4-.3-.6-.6-.6z"/><path class="st0" d="M123.4 96.9h-8.3l-2.3-7.4h-11.4l-2.2 7.4h-8.3l12.1-37.1h8.2l12.2 37.1zm-19.6-14.5h6.7l-3.4-12.4-3.3 12.4z"/><path class="st0" d="M123 59.8h27.3v7.4h-9.6v29.8h-8.1v-29.9h-9.6v-7.3z"/><path class="st0" d="M165 59.8h27.3v7.4h-9.6v29.8h-8.1v-29.9h-9.6v-7.3z"/><path class="st0" d="M217.1 81.7h-10.7v15.2h-8.1v-37.1h8.1v14.6h10.7v-14.6h8.1v37.2h-8.1v-15.3z"/><path class="st0" d="M232.3 59.8h23.1v7.4h-15v7.1h13.8v7.4h-13.8v8h15.1v7.4h-23.2v-37.3z"/><path class="st0" d="M275.7 83.3h-5.5v13.7h-8.1v-37.2h20.7c3.4 0 6.1 2.7 6.1 6.1v11.2c0 2.8-1.8 5.1-4.4 5.9l6.6 13.9h-8.9l-6.5-13.6zm-5.5-16.2v8.8h10.1c.3 0 .6-.2.6-.6v-7.6c0-.3-.2-.6-.6-.6h-10.1z"/><path class="st0" d="M328.3 96.9h-8.3l-2.3-7.4h-11.4l-2.2 7.4h-8.3l12.2-37.2h8.2l12.1 37.2zm-19.7-14.5h6.7l-3.3-12.4-3.4 12.4z"/><path class="st0" d="M353.9 59.8c3.4 0 6.1 2.7 6.1 6.1v11.3c0 3.4-2.7 6.1-6.1 6.1h-11.8v13.6h-8.1v-37.1h19.9zm-11.8 7.3v8.8h9.4c.3 0 .6-.2.6-.6v-7.7c0-.3-.2-.6-.6-.6h-9.4z"/><path class="st0" d="M378 75.3l6.3-15.6h8.5l-10.7 24.7v12.5h-8.1v-12.5l-10.7-24.7h8.5l6.2 15.6z"/><path class="st1" d="M122.2 126.8h-5.3v7.5h-4v-18.3h4v7.2h5.3v-7.2h4v18.3h-4v-7.5z"/><path class="st1" d="M152.9 134.3h-4.1l-1.2-3.6h-5.6l-1.1 3.6h-4.1l6-18.3h4l6.1 18.3zm-9.7-7.2h3.3l-1.6-6.1-1.7 6.1z"/><path class="st1" d="M177.3 134.3h-3.8l-6.1-10.7v10.7h-3.9v-18.3h3.9l6.1 10.7v-10.7h3.8v18.3z"/><path class="st1" d="M198.9 116c1.7 0 3 1.3 3 3v12.3c0 1.7-1.3 3-3 3h-9.5v-18.3h9.5zm-5.5 3.6v11.1h4.2c.2 0 .3-.1.3-.3v-10.5c0-.2-.1-.3-.3-.3h-4.2z"/><path class="st1" d="M217.7 124.7v9.6h-3.9v-18.3h3.9l4.6 11 4.6-11h3.9v18.3h-3.9v-9.6l-2.9 6.8h-3.4l-2.9-6.8z"/><path class="st1" d="M257.5 134.3h-4.1l-1.2-3.6h-5.6l-1.1 3.6h-4.1l6-18.3h4l6.1 18.3zm-9.7-7.2h3.3l-1.6-6.1-1.7 6.1z"/><path class="st1" d="M277.6 116c1.7 0 3 1.3 3 3v12.3c0 1.7-1.3 3-3 3h-9.5v-18.3h9.5zm-5.5 3.6v11.1h4.2c.2 0 .3-.1.3-.3v-10.5c0-.2-.1-.3-.3-.3h-4.2z"/><path class="st1" d="M292.6 116h11.4v3.6h-7.4v3.5h6.8v3.6h-6.8v3.9h7.4v3.6h-11.4v-18.2z"/><path class="st0" d="M71.8 154.5h6.2c1 0 1.9.8 1.9 1.9v2.8c0 .5-.4 1-.9 1.2.5.1 1 .5 1 1.2v3.1c0 1-.8 1.9-1.9 1.9h-6.2v-12.1zm5.3 4.8c.1 0 .2-.1.2-.2v-2.1c0-.1-.1-.2-.2-.2h-2.6v2.5h2.6zm-2.7 4.9h2.7c.1 0 .2-.1.2-.2v-2.3c0-.1-.1-.2-.2-.2h-2.7v2.7z"/><path class="st0" d="M88 166.5h-2.6v-12h2.6v12z"/><path class="st0" d="M97.4 160h4.2v4.6c0 1.1-.9 2-2 2h-4.2c-1.1 0-2-.9-2-2v-8c0-1.1.9-2 2-2h4.2c1.1 0 2 .9 2 2v1.8h-2.6v-1.2c0-.1-.1-.2-.2-.2h-2.6c-.1 0-.2.1-.2.2v6.9c0 .1.1.2.2.2h2.7c.1 0 .2-.1.2-.2v-1.7h-1.7v-2.4z"/><path class="st0" d="M112.7 154.5h8.8v2.4h-3.1v9.6h-2.6v-9.6h-3.1v-2.4z"/><path class="st0" d="M142.4 166.5h-2.7l-.8-2.4h-3.7l-.7 2.4h-2.7l3.9-12h2.6l4.1 12zm-6.4-4.7h2.2l-1.1-4-1.1 4z"/><path class="st0" d="M156.4 166.5h-2.5l-4-7v7h-2.5v-12h2.5l4 7v-7h2.5v12z"/><path class="st0" d="M168.1 154.5c1.1 0 2 .9 2 2v8c0 1.1-.9 2-2 2h-6.2v-12h6.2zm-3.5 2.4v7.2h2.8c.1 0 .2-.1.2-.2v-6.9c0-.1-.1-.2-.2-.2h-2.8z"/><path class="st0" d="M182.2 154.5h2.6v9.6h4.8v2.4h-7.4v-12z"/><path class="st0" d="M197.3 166.5h-2.6v-12h2.6v12z"/><path class="st0" d="M202.4 154.5h8.8v2.4h-3.1v9.6h-2.6v-9.6h-3.1v-2.4z"/><path class="st0" d="M215.9 154.5h8.8v2.4h-3.1v9.6h-2.6v-9.6h-3.1v-2.4z"/><path class="st0" d="M229.7 154.5h2.6v9.6h4.8v2.4h-7.4v-12z"/><path class="st0" d="M242.2 154.5h7.4v2.4h-4.8v2.3h4.5v2.4h-4.5v2.6h4.9v2.4h-7.5v-12.1z"/><path class="st0" d="M260.7 154.5h8.8v2.4h-3.1v9.6h-2.6v-9.6h-3.1v-2.4z"/><path class="st0" d="M280.8 166.5v-12h7.6v2.4h-4.9v2.3h4.6v2.4h-4.6v4.9h-2.7z"/><path class="st0" d="M302.5 166.5h-2.7l-.8-2.4h-3.7l-.7 2.4h-2.6l3.9-12h2.6l4 12zm-6.3-4.7h2.2l-1.1-4-1.1 4z"/><path class="st0" d="M311.9 162.1h-1.8v4.4h-2.6v-12h6.7c1.1 0 2 .9 2 2v3.6c0 .9-.6 1.7-1.4 1.9l2.1 4.5h-2.9l-2.1-4.4zm-1.8-5.2v2.8h3.3c.1 0 .2-.1.2-.2v-2.5c0-.1-.1-.2-.2-.2h-3.3z"/><path class="st0" d="M324.5 160.2v6.3h-2.5v-12h2.5l3 7.2 3-7.2h2.5v12h-2.5v-6.3l-1.9 4.4h-2.2l-1.9-4.4z"/><path class="st0" d="M346.5 164.5c0 1.1-.9 2-2 2h-4.1c-1.1 0-2-.9-2-2v-1.6h2.6v1c0 .1.1.2.2.2h2.5c.1 0 .2-.1.2-.2v-1.7c0-.1-.1-.2-.2-.2-.3-.1-1.3-.4-3.5-1-1.1-.3-1.7-.8-1.7-1.9v-2.7c0-1.1.9-2 2-2h4c1.1 0 2 .9 2 2v1.6h-2.6v-1c0-.1-.1-.2-.2-.2h-2.4c-.1 0-.2.1-.2.2v1.5c0 .1.1.2.2.2.2.1 1.2.3 3.6 1 1 .3 1.6.8 1.6 1.9v2.9z"/><path class="st1" d="M136 24.6c1.1-.4 2.2-.9 3.4-1.3.4 1.1.8 2.3 1.3 3.4.3.8-.1 1.7-1 2.1-1.1.4-2.2.8-3.3 1.3-.8.3-1.8 0-2.1-.8-.8-2-1.6-4-2.5-5.9-.3-.8.1-1.8 1-2.1 1.1-.5 2.3-.9 3.4-1.3.9-.3 1.9.1 2.2.9l.5 1.3c-.7.3-1.4.5-2 .8-.1-.3-.2-.6-.4-.9 0-.1-.1-.1-.2-.1-.7.3-1.4.6-2.1.8-.1 0-.1.1-.1.2.7 1.7 1.4 3.4 2 5.1 0 .1.1.1.2.1l2.1-.8c.1 0 .1-.1.1-.2l-.5-1.3-1.3.5c-.3-.7-.5-1.3-.7-1.8z"/><path class="st1" d="M151.4 24.7l-3.5 1.1c-.9.3-1.8-.1-2.1-1l-2.1-6.1c-.3-.8.2-1.7 1.1-2 1.2-.4 2.4-.8 3.7-1.2.9-.3 1.8.2 2.1 1 .6 2 1.2 4.1 1.9 6.1.3.9-.2 1.8-1.1 2.1zm-2.9-7.2l-2.3.7c-.1 0-.1.1-.1.2l1.7 5.2c0 .1.1.1.2.1l2.2-.7c.1 0 .1-.1.1-.2l-1.6-5.2c-.1 0-.2-.1-.2-.1z"/><path class="st1" d="M165.9 20.8l-2.1.5c-.3-.6-.7-1.1-1.1-1.7l-3 .7-.1 2-2.1.6c.2-3.4.4-6.7.7-10.1l2.2-.6c2 2.8 3.8 5.7 5.5 8.6zm-6-2.4l1.8-.4c-.5-1-1.1-1.9-1.7-2.9 0 1 0 2.2-.1 3.3z"/><path class="st1" d="M167.2 10.7c2.5-.5 4.9-1 7.4-1.4.1.6.2 1.2.3 1.9-.9.1-1.7.3-2.6.5.5 2.5.9 5 1.4 7.6l-2.1.4-1.5-7.5-2.6.5c0-.8-.1-1.4-.3-2z"/><path class="st1" d="M189.7 11.8l.5 5c-.7.1-1.4.1-2 .2-.3-3.2-.7-6.4-1-9.5.7-.1 1.4-.2 2.1-.2l3.1 5.5c.7-2 1.4-4 2.1-5.9.7-.1 1.4-.1 2.2-.1l.6 9.6-2.1.1c-.1-1.7-.2-3.4-.4-5-.4 1.2-.9 2.4-1.3 3.7-.6 0-1.2.1-1.8.2-.8-1.3-1.4-2.5-2-3.6z"/><path class="st1" d="M205 15.9c-.7 0-1.4 0-2.1.1l-.3-9.6c.7 0 1.5 0 2.2-.1l.2 9.6z"/><path class="st1" d="M210.9 6.3h2.2l-.2 7.7 3.9.1-.1 1.9c-2-.1-4-.1-6-.1.1-3.2.2-6.4.2-9.6z"/><path class="st1" d="M222.6 6.7c.7 0 1.5.1 2.2.2l-.3 4.5 3.1-4.2c.9.1 1.7.2 2.6.2l-3.5 4.5 2.7 5.1c-.8-.1-1.7-.2-2.5-.2l-2.4-4.7c-.1 1.5-.2 3-.3 4.4l-2.1-.2c.1-3.2.3-6.4.5-9.6z"/><path class="st1" d="M247.6 18.1c-.2.9-1 1.4-1.9 1.2l-3.3-.6c-.9-.2-1.5-1-1.3-1.8.1-.4.1-.8.2-1.3.7.1 1.4.2 2.1.4l-.1.8c0 .1 0 .2.1.2.7.1 1.4.2 2 .4.1 0 .2 0 .2-.1.1-.4.2-.9.2-1.3 0-.1 0-.2-.2-.2-.2-.1-1-.5-2.7-1.3-.8-.4-1.3-.8-1.1-1.7.1-.7.2-1.4.4-2.1.1-.9 1-1.4 1.9-1.3l3.3.6c.9.2 1.5 1 1.4 1.9-.1.4-.2.8-.2 1.2l-2.1-.4.1-.8c0-.1 0-.2-.1-.2-.7-.1-1.3-.2-2-.4-.1 0-.2 0-.2.1l-.2 1.2c0 .1 0 .2.1.2.1.1 1 .4 2.8 1.3.8.4 1.2.9 1 1.7-.1.9-.2 1.6-.4 2.3z"/><path class="st1" d="M257.8 22.1c-1.2-.3-2.4-.6-3.5-.9-.9-.2-1.4-1.1-1.2-1.9.5-2.1 1-4.2 1.4-6.3.2-.9 1.1-1.4 2-1.2l3.7.9c.9.2 1.5 1.1 1.2 2l-1.7 6.2c-.2.9-1.1 1.4-1.9 1.2zm1.2-7.6c-.8-.2-1.6-.4-2.3-.6-.1 0-.2 0-.2.1-.4 1.8-.9 3.6-1.3 5.3 0 .1 0 .2.1.2l2.3.6c.1 0 .2 0 .2-.1.5-1.8.9-3.6 1.4-5.3-.1-.1-.1-.2-.2-.2z"/><path class="st1" d="M272.2 26.4l-2.1-.7v-2c-1-.3-2-.6-2.9-.9-.4.5-.8 1.1-1.1 1.6l-2.1-.6c1.9-2.8 3.9-5.5 6-8.2.7.2 1.4.5 2.2.7v10.1zm-3.9-5.2c.6.2 1.2.4 1.7.6l.1-3.3c-.5.9-1.1 1.8-1.8 2.7z"/><path class="st1" d="M285.5 21.2c.9.4 1.3 1.3 1 2.1l-1.1 2.7c-.3.8-1.3 1.2-2.2.8l-3-1.2c-.4 1.1-.8 2.2-1.3 3.3l-2-.8 3.3-9c1.8.7 3.6 1.4 5.3 2.1zm-3.8.5l-.8 2.1 2.4.9c.1 0 .2 0 .2-.1l.7-1.8c0-.1 0-.2-.1-.2l-2.4-.9z"/><polygon class="st1" points="417.3,190.9 2.7,190.9 2.7,25.4 108,25.4 108,32.3 9.6,32.3 9.6,184.1 410.5,184.1 410.5,32.3 311.6,32.3 311.6,25.4 417.3,25.4"/><rect x="331.4" y="122.2" class="st1" width="82.5" height="6.9"/><rect x="6.2" y="122.2" class="st1" width="82.5" height="6.9"/><path class="st2" d="M210.5 31.5h.2c.4.1.4.5.5.9.2.6.3 1.2.5 1.9.1.3.2.8.3.9.1.1.6 0 .9 0h.9c.8 0 1.8-.2 1.9.5 0 .4-.4.5-.6.7-.6.4-1.2.8-1.9 1.3-.1.1-.3.2-.3.3 0 .1.1.3.1.5l.8 2.2c.1.3.3.6.2.9-.1.2-.3.3-.4.3-.4 0-.6-.3-.8-.5l-1.7-1.4c-.1-.1-.3-.2-.4-.2l-.4.2-1.7 1.5c-.2.2-.5.5-.8.4-.2 0-.4-.2-.4-.5s.1-.6.2-.9c.2-.7.4-1.3.6-2.1 0-.2.1-.3.1-.4 0-.2-.5-.5-.7-.6-.5-.3-1-.6-1.5-1-.2-.2-.5-.3-.6-.6v-.1c.1-.5.5-.4 1.2-.4h2.5c.1-.1.2-.5.3-.8.2-.7.3-1.1.5-1.7 0-.7.1-1.2.5-1.3z"/><path class="st2" d="M191.1 31.5h.2c.4.1.4.5.5.9.2.6.3 1.2.5 1.9.1.3.2.8.3.9.1.1.6 0 .9 0h.9c.8 0 1.8-.2 1.9.5 0 .4-.3.5-.6.7-.6.4-1.2.8-1.8 1.3-.2.1-.3.2-.3.3 0 .1.1.3.1.5.3.8.5 1.4.7 2.2.1.3.3.6.2.9-.1.2-.3.3-.4.3-.4 0-.6-.3-.8-.5-.6-.5-1.1-.9-1.8-1.4-.1-.1-.3-.2-.4-.2l-.4.2-1.7 1.5c-.2.2-.5.5-.8.4-.2 0-.4-.2-.4-.5s.1-.6.2-.9c.2-.7.4-1.3.6-2.1 0-.2.1-.3.1-.4 0-.2-.5-.5-.7-.6-.5-.3-1-.6-1.5-1-.2-.2-.5-.3-.6-.6v-.1c.1-.5.6-.4 1.2-.4h2.5c.1-.1.2-.5.3-.8.2-.7.3-1.1.5-1.7.1-.7.2-1.2.6-1.3z"/><path class="st2" d="M229.8 31.5h.2c.4.1.4.5.5.9.2.6.3 1.2.5 1.9.1.3.2.8.3.9.1.1.6 0 .9 0h.9c.8 0 1.8-.2 1.9.5 0 .4-.4.5-.6.7-.6.4-1.2.8-1.8 1.3-.2.1-.3.2-.3.3 0 .1.1.3.1.5.3.8.5 1.4.7 2.2.1.3.3.6.2.9-.1.2-.3.3-.4.3-.4 0-.6-.3-.8-.5l-1.7-1.4c-.1-.1-.3-.2-.4-.2l-.4.2-1.7 1.5c-.2.2-.5.5-.8.4-.2 0-.4-.2-.4-.5s.1-.6.2-.9c.2-.7.4-1.3.6-2.1 0-.2.1-.3.1-.4 0-.2-.5-.5-.7-.6-.5-.3-1-.6-1.5-1-.2-.2-.5-.3-.6-.6v-.1c.1-.5.6-.4 1.2-.4h2.5c.1-.1.2-.5.3-.8.2-.7.3-1.1.5-1.7 0-.7.1-1.2.5-1.3z"/></svg>